PathFileType	4	(X/Y/Z)	D:\TRACE\v60_Jaco2_6-2-23\JustArmDRS_Motion2_1-Unnamed.trc
DataRate	CameraRate	NumFrames	NumMarkers	Units	OrigDataRate	OrigDataStartFrame	OrigNumFrames
100.00	100.00	      103	0	mm	100.00	1800	      7199
Frame#	Time	
		

1800	17.990																												-24.47873	1109.17981	-136.48367																			-22.51793	915.87592	-1074.36243	-57.21240	1141.61401	-524.80463				-56.68539	946.49969	-125.76427	
1801	18.000																												-22.30678	1108.88513	-136.13602																			-21.72647	917.71307	-1072.46545	-55.67828	1141.72559	-524.37341				-54.28251	946.37189	-124.83817	
1802	18.010																												-21.58379	1109.55933	-136.11357																						-54.41293	1141.98596	-524.67621				-53.85479	946.37097	-124.68505	
1803	18.020																												-19.45698	1109.17981	-134.97113																						-52.58074	1142.12646	-523.63342				-52.85247	946.19202	-124.79062	
1804	18.030																												-19.09965	1109.52197	-134.36737																						-51.65157	1142.54895	-523.95996				-50.75293	946.42059	-124.27515	
1805	18.040																												-16.87143	1109.53955	-133.51167				-18.08597	925.05359	-1061.46240																-48.80206	1142.95313	-522.24878				-49.71847	946.77332	-123.41190	
1806	18.050																												-14.40564	1109.76660	-132.90462																						-47.83175	1143.33057	-522.15814	-9.26358	1042.99731	-126.42507	-48.42116	946.70123	-122.86609	
1807	18.060																																																				-45.70468	1143.82373	-521.36420	-8.39316	1043.31323	-125.51290	
1808	18.070																												-44.84820	947.00745	-122.25974				-10.88678	1110.13513	-131.96886																-43.60773	1144.05103	-520.14838	
1809	18.080																												-42.49480	946.64508	-120.88239				-8.94224	1109.95801	-130.70811																-41.82307	1144.72595	-519.26605	
1810	18.090																												-41.43597	946.77832	-120.66356				-7.83917	1110.49329	-129.87248																-40.06988	1145.07739	-518.78302	
1811	18.100																												-39.76486	947.37909	-120.29701				-6.27937	1110.72705	-129.09351																-38.35654	1145.32056	-518.22345	-1.27691	1043.91980	-123.01815	
1812	18.110																																																				-35.93836	1145.78394	-516.46973	0.08076	1043.83020	-121.47168	870.51166	709.69031	13.56414	
1813	18.120																																		122.07171	657.94067	-229.00580																-34.60472	1146.07971	-516.09589				871.01593	709.77887	13.79630	
1814	18.130																																											-0.85395	1110.68176	-125.97526							-32.22902	1146.80212	-513.91998	4.43699	1042.85779	-119.52270	871.76123	710.07336	14.41194	
1815	18.140																																		137.73286	660.56738	-227.40370							7.04639	1042.51294	-118.84117							-30.12703	1147.19812	-513.06738				872.49420	710.19312	15.18143	
1816	18.150																																																				-27.93257	1147.55444	-511.86356				873.06732	710.60492	15.81674	
1817	18.160																																																				-26.44644	1148.55688	-511.61176	
1818	18.170																																											-28.44018	947.77441	-114.36373				872.95612	710.62805	15.38905	-24.78603	1148.70544	-510.65063	
1819	18.180																																																	850.10449	701.68951	-13.06295	-21.71484	1149.14514	-508.44714	933.90582	650.27716	-121.12252	
1820	18.190																																																				-21.59673	1149.98621	-509.42126	
1821	18.200																																											936.94714	650.67572	-119.53614				850.28186	701.74542	-13.00738	-19.08237	1150.60425	-507.56436	7.73697	853.13379	-172.25574	
1822	18.210																																																	851.12708	702.02295	-12.04112	-17.14555	1151.08301	-505.88522	
1823	18.220	-267.04056	778.73456	-196.20346																																								12.11426	853.28040	-170.31261				851.44214	702.15002	-11.40387	-15.79535	1151.70422	-505.42178	
1824	18.230																																											14.00718	853.29034	-168.96588				851.91125	702.23663	-10.94233	-13.95419	1152.66882	-504.16428	
1825	18.240	24.97185	1039.22620	-107.33508																																														852.15741	702.20709	-10.52432	-11.77844	1153.27856	-502.72473	
1826	18.250																												-265.33624	779.65363	-194.15898													16.55220	853.90393	-167.93604				852.68311	702.31189	-10.04682	-10.06177	1153.62708	-502.14941	
1827	18.260																																											18.91695	853.86011	-166.50171				853.57440	702.87463	-9.03974	-7.00681	1154.17273	-499.57712	
1828	18.270																												27.66702	660.91907	-203.86388																			874.88483	711.96265	16.78155	-6.16361	1154.92871	-499.93396	
1829	18.280																												25.27480	661.18579	-202.50070																						-3.89886	1155.46118	-497.83411	
1830	18.290	-260.76089	780.59363	-191.01241																																														24.28486	854.64380	-163.72533	-0.93006	1155.82361	-495.13123	
1831	18.300																												-14.72620	1348.40894	-196.98700																			25.67311	854.85669	-162.83305	
1832	18.310																												-12.42735	1348.10193	-195.91948																			28.42030	854.58057	-161.30843	948.76074	658.08801	-104.98837	84.59523	1172.65869	-416.19885	
1833	18.320																												-10.39012	1348.16382	-194.51865													34.63963	662.51770	-200.31190				29.45108	854.96576	-160.75027				87.35241	1173.74304	-413.92993	1.87834	662.38489	-227.96878	
1834	18.330																												-8.56277	1348.68420	-192.87775																			31.18130	855.12628	-159.52072	878.51563	713.15918	20.68915	89.58390	1174.25049	-413.23871	
1835	18.340																												-6.46863	1348.65051	-191.51924													-259.98758	784.78888	-187.72099				33.76540	855.06940	-157.96713	879.68951	713.73987	21.75940	91.65659	1174.79822	-411.29547	
1836	18.350																												-4.57099	1348.72754	-189.92886																						880.39166	714.04303	22.53731	94.14513	1175.77893	-409.52469	
1837	18.360																												-1.95842	1348.74341	-188.63268																			-263.51767	788.82404	-186.94377							42.88753	1118.90173	-98.49036	
1838	18.370	38.72824	856.10626	-155.11401																									0.21521	1348.43481	-187.49634																			-262.44629	789.09668	-186.02878	
1839	18.380																												2.61841	1348.46509	-185.65570																									48.32524	1119.92383	-95.29288	
1840	18.390	47.54992	664.50500	-194.92108																																														41.37823	856.63586	-153.33234				50.64793	1120.22571	-93.69273	
1841	18.400	47.89163	664.70880	-193.79247																																																	336.46979	1175.33997	89.60270				1166.45227	798.29816	161.56247	
1842	18.410	49.75951	665.22247	-193.66447	
1843	18.420	52.29390	665.37402	-192.12230																																														89.97652	1115.74878	-107.89163	
1844	18.430	51.59718	666.09174	-191.86368																																																	88.55158	1147.77856	-113.07968	77.48663	1118.33777	-98.41216	
1845	18.440	53.72163	666.91919	-190.23622	
1846	18.450										108.87802	1147.75012	-93.37027																51.33639	858.26385	-146.72092	
1847	18.460	82.22129	1145.23853	-117.81396																									53.65465	858.19385	-144.97313																						19.74867	1347.18823	-173.66576	
1848	18.470																												55.20992	858.59314	-144.09723	
1849	18.480	
1850	18.490	
1851	18.500	
1852	18.510	
1853	18.520																												32.85045	1347.05396	-163.89957				63.29879	859.84790	-138.16228	
1854	18.530																																		64.48290	859.98444	-137.29680	
1855	18.540																																		65.91920	860.48334	-135.98331	
1856	18.550	
1857	18.560																												252.18605	1209.02441	-415.35239				68.42394	861.50281	-133.91534	
1858	18.570																																		70.28376	861.52014	-132.30299							115.89262	1160.35779	-92.24525	
1859	18.580	
1860	18.590																												119.18161	1162.00195	-90.06451	
1861	18.600	
1862	18.610																																		122.86533	1162.93945	-87.62463	
1863	18.620	
1864	18.630	
1865	18.640	
1866	18.650																																											58.04669	1345.29309	-152.84181	
1867	18.660										103.92624	1185.24695	-578.91736																															59.55194	1344.32458	-153.19560	
1868	18.670										106.25967	1185.83899	-577.89404																															61.30166	1343.64575	-153.98228	
1869	18.680										106.76360	1185.94019	-577.86163	
1870	18.690																																											64.70721	1342.83228	-155.14856	
1871	18.700										109.60730	1185.76099	-576.81934																															66.27191	1342.69678	-154.87434	
1872	18.710										110.70584	1185.46594	-575.52936																															67.70042	1342.56458	-155.16048	
1873	18.720																															112.52148	1186.02332	-574.29321										69.11377	1342.32361	-155.61967	
1874	18.730										113.51295	1186.26025	-573.60968																															70.03396	1341.99731	-156.14259							99.40909	1334.94995	-74.22256	
1875	18.740																																											71.43668	1341.88159	-156.13745							100.00859	1335.09924	-73.99467	
1876	18.750										115.01292	1186.56750	-573.07092																															72.55595	1341.61206	-156.55026	
1877	18.760										117.04350	1187.13538	-571.37244																															73.33508	1340.77466	-157.02855	
1878	18.770										116.86115	1187.42041	-571.75616																															74.54527	1340.47058	-157.70219	
1879	18.780																															123.81343	1332.82056	-70.06986	
1880	18.790																															124.52186	1333.11182	-70.09583										75.69189	1338.87097	-159.35297	
1881	18.800	
1882	18.810																															77.60318	1338.45129	-159.69293							145.33870	1332.39099	-79.52483	111.22292	1123.63489	-50.18707	
1883	18.820																																								146.23930	1332.32629	-79.62932	
1884	18.830																															-688.45624	1375.80237	168.93080							146.33031	1332.43689	-79.54137	106.83722	1336.14355	-75.25901	
1885	18.840																																								145.96310	1332.67102	-79.36410	107.37641	1336.38513	-75.01720							79.67299	1337.67065	-159.39612	112.94196	1122.65710	-48.94250	
1886	18.850																																											128.03777	1333.05225	-69.88029										113.86026	1122.12817	-47.88797	
1887	18.860																															176.96434	1211.36450	210.63994										129.05356	1332.93848	-69.24363										113.13995	1122.40039	-47.35152	
1888	18.870																																											127.68456	1335.42590	-82.61366	
1889	18.880																															113.79321	1122.93616	-46.58714	
1890	18.890																															113.60816	1122.63257	-45.59407							148.55864	1332.89746	-76.88783	
1891	18.900																																								148.33946	1333.24927	-76.02445	
1892	18.910																															113.38310	1123.01758	-44.64268							148.51897	1333.33435	-75.69526	
1893	18.920																																								148.07574	1333.34656	-74.67869	
1894	18.930																															109.24757	1337.35193	-69.31923							148.08696	1333.59460	-74.01385	
1895	18.940																															148.86208	1333.39795	-73.70899							148.86208	1333.39795	-73.70899	
1896	18.950																																								147.77571	1333.44031	-72.70710	
1897	18.960																																								147.55144	1333.63757	-72.42538	
1898	18.970																															109.63971	1335.70325	-67.77499							147.39995	1333.79138	-72.31068	
1899	18.980																															176.27211	1325.33545	-66.06640	
1900	18.990																																								147.83836	1334.17664	-71.84406	
1901	19.000																																								147.04706	1333.90698	-71.07431	
1902	19.010																															-687.59479	1375.64209	172.53322							146.53659	1334.01477	-70.73071	
